<?xml version="1.0" encoding="UTF-8"?>
<svg xmlns="http://www.w3.org/2000/svg" xmlns:xlink="http://www.w3.org/1999/xlink" width="20pt" height="20pt" viewBox="0 0 20 20" version="1.1">
<g id="surface1">
<path style=" stroke:none;fill-rule:nonzero;fill:#777575;fill-opacity:1;" d="M 4.046875 19.285156 C 3.96875 19.285156 3.890625 19.246094 3.808594 19.207031 C 3.691406 19.125 3.613281 18.929688 3.652344 18.769531 L 5.398438 12.261719 L 0.15625 8.015625 C 0 7.9375 -0.0390625 7.738281 0 7.578125 C 0.0390625 7.421875 0.199219 7.300781 0.355469 7.300781 L 7.101563 6.945313 L 9.523438 0.636719 C 9.601563 0.515625 9.761719 0.398438 9.921875 0.398438 C 10.078125 0.398438 10.238281 0.515625 10.277344 0.636719 L 12.699219 6.945313 L 19.445313 7.300781 C 19.601563 7.300781 19.761719 7.421875 19.800781 7.578125 C 19.839844 7.738281 19.800781 7.894531 19.683594 8.015625 L 14.445313 12.261719 L 16.191406 18.769531 C 16.230469 18.929688 16.191406 19.089844 16.03125 19.207031 C 15.914063 19.285156 15.714844 19.324219 15.59375 19.207031 L 9.921875 15.554688 L 4.246094 19.207031 C 4.167969 19.285156 4.125 19.285156 4.046875 19.285156 Z "/>
</g>
</svg>
